<svg height="512" width="439" xmlns="http://www.w3.org/2000/svg"><path d="m438.8571472 128v347.4285583c-.3849182 10.2857361-4 18.8571472-10.8571472 25.7142944s-15.4285583 10.4722291-25.7142944 10.8571473h-365.7142754c-10.2857151-.3849182-18.8571453-4-25.7142868-10.8571472s-10.4841275-15.4285584-10.8571434-25.7142945v-438.8571281c.3730159-10.2857151 4-18.8571453 10.8571424-25.7142868s15.4285727-10.4722228 25.7142878-10.8571434h274.2857056zm-36.5714416 18.2857208-109.7142639-109.7142906h-256v438.8571167h365.7142639zm-96.7817383 199.0396881h-119.3174591l-24.7658691 29.7619019h11.9047546c11.7460327 0 19.1388855 2.2658691 22.1865082 6.7896729 3.0436554 4.5238037 2.0448151 33.0054932-4.9155121 37.5292969-6.9523773 4.5238037-10.3622589 4.4905396-22.1082916 4.4905396h-77.6699677c-11.7460327 0-19.1428528-2.2579346-22.1904755-6.7817383-3.0396805-4.5238037-3.9569397-32.645874 1.7141266-36.2765198 7.2203522-4.6224976 18.4042511-6.0647583 30.3328247-5.7512512l159.170639-190.9484253h-23.7777863c-11.7460327 0-19.1428528-2.2658691-22.1865082-6.7896729-3.0436554-4.523819-2.9920654-10.4325409.1627045-17.7341309 3.1547546-7.2976227 8.2103119-13.2142944 15.1666565-17.7380981 6.9523926-4.5238037 16.3055573-6.7896881 28.05159-6.7896881l102.1448364.2380981v239.7619171c11.4285889 0 15.1924744 1.2738037 17.7480164 3.8095093 5.0397034 5.2380981 3.6608276 38.0372009.9629822 40.5423279-4.7407532 4.4021301-10.3431396 4.4576721-17.4550476 4.4576721h-81.9682312c-11.7460327 0-19.1428833-2.2579346-22.1904907-6.7817383-3.0396881-4.5238037-4.2110291-32.2854919 2.7453308-36.8093262 6.9523621-4.5238037 20.6633911-5.2184448 32.4094238-5.2184448h13.8452454zm0-48.8055725v-96.6666565l-78.7063446 96.6666565z"/></svg>